<?xml version="1.0" encoding="UTF-8"?>
<!DOCTYPE svg PUBLIC "-//W3C//DTD SVG 1.1//EN" "http://www.w3.org/Graphics/SVG/1.1/DTD/svg11.dtd">
<!-- Creator: CorelDRAW X7 -->
<svg xmlns="http://www.w3.org/2000/svg" xml:space="preserve" width="50.7798mm" height="29.6208mm" version="1.1" style="shape-rendering:geometricPrecision; text-rendering:geometricPrecision; image-rendering:optimizeQuality; fill-rule:evenodd; clip-rule:evenodd"
viewBox="0 0 1742 1016"
 xmlns:xlink="http://www.w3.org/1999/xlink">
 <defs>
  <style type="text/css">
   <![CDATA[
    .str1 {stroke:#FFED00;stroke-width:6.86203}
    .str0 {stroke:#2B2A29;stroke-width:2.61443}
    .fil1 {fill:#2B2A29}
    .fil0 {fill:#FFED00}
    .fil2 {fill:#2B2A29;fill-rule:nonzero}
    .fil3 {fill:#FFED00;fill-rule:nonzero}
   ]]>
  </style>
 </defs>
 <g id="Layer_x0020_1">
  <metadata id="CorelCorpID_0Corel-Layer"/>
  <g id="_1707783552912">
   <g>
    <path class="fil0" d="M227 953c-94,-38 -173,-125 -206,-232 -12,-38 -17,-52 -16,-94 4,-94 51,-199 106,-254 44,-43 174,-96 243,-103 -190,98 -282,406 -50,557 193,125 336,27 403,9 -38,65 -142,150 -256,162 -59,6 -171,-24 -224,-45z"/>
    <path class="fil1" d="M237 959c-90,-37 -165,-124 -196,-230 -11,-38 -17,-79 -15,-120 4,-94 50,-173 104,-228 43,-43 128,-95 194,-102 -184,99 -234,405 -11,554 185,124 324,25 389,6 -37,65 -153,139 -263,152 -57,6 -151,-11 -202,-32zm131 55c78,8 145,-2 232,-51 53,-30 116,-83 138,-159 -97,44 -95,46 -199,66 -209,40 -382,-184 -346,-351 49,-220 168,-226 208,-259 -8,-12 5,-19 -58,-8 -68,11 -131,32 -184,72 -75,57 -128,123 -152,245 -45,227 127,420 361,445z"/>
   </g>
   <path class="fil2" d="M1150 143l29 128c1,5 4,8 8,10l96 41c6,2 9,7 9,13 0,6 -3,11 -9,13l-96 41c-4,2 -7,5 -8,10l-29 128 -5 11c-2,5 -7,8 -14,8 -6,0 -11,-4 -13,-9l0 -1c-3,-7 -4,-12 -6,-18l-12 -56c-5,-22 -5,-57 -11,-69 -10,0 -82,-34 -107,-45 -6,-2 -9,-7 -9,-13 0,-6 3,-11 9,-13l96 -41c4,-2 7,-5 8,-10l28 -128 4 -11c2,-6 7,-10 14,-10 6,0 12,4 14,10l4 11z"/>
   <path class="fil2" d="M1576 15l21 94c0,3 2,6 6,7l70 30c4,2 6,5 6,10 0,4 -2,7 -6,9l-70 30c-4,1 -6,4 -6,7l-21 94 -4 8c-2,4 -6,6 -10,6 -5,0 -8,-3 -10,-7l0 -1c-2,-4 -3,-8 -4,-13l-9 -41c-4,-15 -5,-43 -14,-55 -6,-7 -56,-21 -73,-28 -4,-2 -6,-5 -6,-9 0,-5 2,-8 6,-10l71 -30c3,-1 5,-4 6,-7l21 -94 2 -8c2,-4 5,-7 10,-7 5,0 9,3 11,7l3 8z"/>
   <path class="fil2 str0" d="M1685 550l11 51c0,2 2,3 3,4l38 16c3,1 4,3 4,5 0,3 -1,5 -4,6l-38 16c-1,0 -3,2 -3,4l-11 51 -2 4c-1,2 -3,3 -6,3 -2,0 -4,-1 -5,-4l0 0c-1,-2 -2,-5 -2,-7l-5 -22c-2,-9 -3,-24 -8,-30 -6,-8 -16,-6 -26,-10l-13 -5c-2,-1 -4,-3 -4,-6 0,-2 2,-4 4,-5l38 -16c2,-1 3,-2 3,-4l12 -51 1 -4c1,-2 3,-4 5,-4 3,0 5,1 6,4l2 4zm-2 60l-5 -25 -7 29 -29 12 29 13 7 29 6 -29 30 -13 -30 -12 -1 -4z"/>
   <polygon class="fil3" points="1683,610 1678,585 1671,613 1642,626 1671,639 1678,667 1684,639 1714,626 1684,613 "/>
   <polygon class="fil3 str1" points="1152,289 1133,157 1108,291 1009,336 1108,376 1135,504 1163,379 1256,332 1154,299 "/>
   <polygon class="fil3 str1" points="1573,116 1563,31 1551,125 1477,155 1537,172 1562,275 1588,177 1657,155 1574,125 "/>
  </g>
 </g>
</svg>
