<?xml version="1.0" encoding="UTF-8"?>
<!DOCTYPE svg PUBLIC "-//W3C//DTD SVG 1.1//EN" "http://www.w3.org/Graphics/SVG/1.1/DTD/svg11.dtd">
<!-- Creator: CorelDRAW X7 -->
<svg xmlns="http://www.w3.org/2000/svg" xml:space="preserve" width="39.8176mm" height="26.3677mm" version="1.1" style="shape-rendering:geometricPrecision; text-rendering:geometricPrecision; image-rendering:optimizeQuality; fill-rule:evenodd; clip-rule:evenodd"
viewBox="0 0 611 405"
 xmlns:xlink="http://www.w3.org/1999/xlink">
 <defs>
  <style type="text/css">
   <![CDATA[
    .fil0 {fill:black}
   ]]>
  </style>
 </defs>
 <g id="PowerClip_x0020_Contents">
  <metadata id="CorelCorpID_0Corel-Layer"/>
  <g id="_1707785576288">
   <path class="fil0" d="M417 0l-27 16c-43,33 -7,31 -72,52 2,-11 5,-19 7,-31 2,-12 9,-17 10,-27 -16,2 -36,26 -38,43 -2,19 7,16 -13,25 -10,5 -20,14 -28,20 3,-18 12,-33 26,-43 -12,-8 -29,13 -34,20 -14,18 -5,31 -12,44 -6,13 -42,50 -55,61 0,-16 7,-36 11,-50 2,-6 2,-6 5,-12 2,-4 3,-5 5,-9 4,-10 4,-11 10,-19 6,-8 8,-11 16,-17 14,-11 3,-7 22,-12 19,-5 14,-33 9,-48 -15,12 -26,13 -25,37 0,14 -2,12 -12,20 -8,6 -9,10 -14,15l-6 -24c-21,7 -20,33 -17,59 1,10 -7,43 -11,57 -4,17 -19,25 -33,33 1,-14 0,-15 -2,-31 -2,-20 11,-30 13,-43 -29,10 -41,61 -30,87 -4,2 -111,168 -122,175 1,2 3,4 3,7 11,-7 116,-173 126,-179 8,-5 15,-13 24,-12 20,1 11,7 47,4 16,-2 43,-20 56,-31 4,-3 3,-1 6,-6 -18,-4 -64,17 -91,16 6,-9 22,-20 32,-30 9,-9 19,-18 25,-29 20,10 23,0 44,0 18,0 27,12 40,12 -2,-17 -16,-33 -30,-32 -25,2 -24,3 -47,13 18,-28 49,-53 95,-59 8,14 10,16 29,18 7,0 13,1 19,3 8,4 4,5 13,8 -4,-29 -22,-31 -46,-34l14 -8c10,-5 2,-1 14,-2 24,-1 48,-37 44,-57zm-47 44c7,-12 30,-30 41,-38 -2,9 -7,21 -12,29 -3,4 -25,23 -30,17 6,-4 10,-7 15,-12 6,-6 2,-3 8,-12 -13,3 -12,12 -22,16zm-135 92c9,-5 46,-19 57,-12 9,7 16,20 13,22l-17 -11c-10,-4 -46,3 -53,1zm4 -82c0,-1 -2,-8 -1,-13 2,-9 10,-20 20,-22 0,23 3,30 -12,37 1,-9 7,-4 5,-23 -8,3 -4,11 -12,21z"/>
   <path class="fil0" d="M611 257l-32 -1c-56,5 -25,22 -92,6 9,-8 16,-13 26,-22 9,-9 17,-9 25,-17 -15,-7 -47,3 -59,16 -13,14 -4,16 -26,13 -11,-1 -26,1 -36,2 15,-13 31,-21 49,-22 -5,-12 -32,-4 -41,-1 -22,8 -23,23 -37,30 -14,7 -67,19 -84,21 10,-13 29,-26 41,-35 6,-4 5,-4 11,-7 5,-3 5,-3 10,-6 10,-6 10,-6 21,-10 10,-3 13,-4 23,-5 18,-2 7,-5 26,1 18,6 32,-20 38,-34 -20,2 -30,-3 -44,17 -9,11 -10,8 -23,10 -10,1 -13,4 -21,5l11 -22c-22,-6 -38,16 -52,39 -5,9 -33,31 -44,41 -15,12 -32,11 -49,10 10,-11 9,-12 18,-26 11,-18 28,-20 38,-29 -30,-7 -72,28 -79,56 -6,-1 -198,79 -211,79 0,3 -1,5 -2,8 12,0 204,-81 216,-81 10,0 20,-3 28,2 15,11 4,12 35,28 14,7 49,6 66,4 6,-1 3,0 8,-2 -11,-13 -63,-19 -85,-34 12,-4 32,-5 46,-8 13,-3 27,-5 39,-11 10,19 19,12 36,23 14,9 15,24 25,31 9,-15 8,-36 -4,-42 -22,-12 -21,-10 -47,-14 33,-14 74,-18 116,1 -3,16 -3,19 12,29 5,4 10,8 13,13 4,8 1,7 6,14 15,-26 1,-38 -16,-52l16 0c11,2 3,1 13,6 21,12 63,-6 72,-24zm-66 11c13,-6 44,-9 57,-9 -6,7 -19,14 -28,17 -5,2 -34,7 -35,-1 7,0 13,-1 20,-2 8,-2 4,-2 14,-6 -12,-4 -18,4 -28,1zm-169 6c11,0 50,8 54,20 4,10 1,24 -3,25l-6 -18c-7,-9 -40,-21 -45,-27zm55 -66c1,0 3,-6 8,-10 8,-7 20,-11 30,-7 -14,18 -17,26 -34,24 7,-8 9,0 20,-17 -9,-2 -11,7 -24,10z"/>
  </g>
 </g>
</svg>
